<svg width="42" height="46" viewBox="0 0 42 46" fill="none" xmlns="http://www.w3.org/2000/svg">
<rect y="6" width="40" height="40" fill="url(#paint0_linear)"/>
<path d="M10.745 35.42C9.95167 35.42 9.28667 35.1517 8.75 34.615C8.23667 34.0783 7.98 33.3317 7.98 32.375C7.98 31.395 8.55167 28.3033 9.695 23.1C10.8617 17.8733 11.445 14.105 11.445 11.795L11.235 10.255C13.055 9.625 14.7583 9.31 16.345 9.31C16.5783 9.63667 16.695 10.2083 16.695 11.025C16.695 12.8917 16.1 16.5083 14.91 21.875C13.7433 27.2183 13.16 30.3333 13.16 31.22C13.16 32.0833 13.265 32.515 13.475 32.515L15.925 31.64L16.555 32.865C15.7617 33.495 14.7933 34.0783 13.65 34.615C12.53 35.1517 11.5617 35.42 10.745 35.42Z" fill="white"/>
<path d="M32.56 35.76C32.56 37.44 31.8133 38.8133 30.32 39.88C28.8533 40.9467 27.1733 41.48 25.28 41.48C23.3867 41.48 21.88 41.08 20.76 40.28C19.6667 39.48 19.12 38.7733 19.12 38.16C19.12 37.7867 19.5867 37.1867 20.52 36.36C21.4533 35.5067 22.24 34.9867 22.88 34.8C24.2133 35.7867 25.3067 37.3467 26.16 39.48C27.1467 39.4 27.64 38.9333 27.64 38.08C27.64 36.8533 26.56 35.12 24.4 32.88C22.24 30.6133 21.16 28.8133 21.16 27.48C21.16 26.1467 21.76 25.12 22.96 24.4C24.16 23.6533 25.6 23.28 27.28 23.28C28.9867 23.28 30.2667 23.5867 31.12 24.2C31.9733 24.7867 32.4 25.6 32.4 26.64C32.4 27.6533 31.5867 29.0667 29.96 30.88C30.1467 31.0667 30.3867 31.32 30.68 31.64C30.9733 31.9333 31.36 32.5067 31.84 33.36C32.32 34.2133 32.56 35.0133 32.56 35.76ZM28.72 29.48C29.84 28.52 30.4 27.5733 30.4 26.64C30.4 25.7067 29.76 25.24 28.48 25.24C27.8667 25.24 27.36 25.3733 26.96 25.64C26.56 25.88 26.36 26.16 26.36 26.48C26.36 27.0667 26.9467 27.8933 28.12 28.96L28.72 29.48Z" fill="white"/>
<defs>
<linearGradient id="paint0_linear" x1="42" y1="1.5" x2="-3" y2="49.5" gradientUnits="userSpaceOnUse">
<stop stop-color="#C65BC8"/>
<stop offset="1" stop-color="#FFBA35"/>
</linearGradient>
</defs>
</svg>